# MagicaVoxel @ Ephtracy

# material
mtllib env_floor_basic_armored.mtl
usemtl palette

# normals
vn -1 0 0
vn 1 0 0
vn 0 0 1
vn 0 0 -1
vn 0 -1 0
vn 0 1 0

# texcoords
vt 0.0253906 0.5
vt 0.0292969 0.5
vt 0.0371094 0.5
vt 0.0410156 0.5
vt 0.466797 0.5

# verts
v -20 0 20
v -20 0 -20
v -20 3 20
v -20 3 -20
v -16 2 16
v -16 2 -16
v -16 3 16
v -16 3 -16
v 18 2 18
v 18 2 -18
v 18 3 18
v 18 3 -18
v -18 2 18
v -18 2 -18
v -18 3 18
v -18 3 -18
v 16 2 16
v 16 2 -16
v 16 3 16
v 16 3 -16
v 20 0 20
v 20 0 -20
v 20 3 20
v 20 3 -20
v -20 0 20
v -20 3 20
v 20 0 20
v 20 3 20
v -16 2 16
v -16 3 16
v 16 2 16
v 16 3 16
v -18 2 -18
v -18 3 -18
v 18 2 -18
v 18 3 -18
v -18 2 18
v -18 3 18
v 18 2 18
v 18 3 18
v -16 2 -16
v -16 3 -16
v 16 2 -16
v 16 3 -16
v -20 0 -20
v -20 3 -20
v 20 0 -20
v 20 3 -20
v -20 0 20
v 20 0 20
v -19 0 19
v 19 0 19
v -19 0 -19
v 19 0 -19
v -20 0 -20
v 20 0 -20
v -18 2 18
v 18 2 18
v -16 2 16
v 16 2 16
v -16 2 -16
v 16 2 -16
v -18 2 -18
v 18 2 -18
v -20 3 20
v 20 3 20
v -18 3 18
v 18 3 18
v -16 3 16
v 16 3 16
v -13 3 15
v -11 3 15
v 11 3 15
v 13 3 15
v -14 3 14
v -13 3 14
v -11 3 14
v -10 3 14
v 10 3 14
v 11 3 14
v 13 3 14
v 14 3 14
v -15 3 13
v -14 3 13
v -13 3 13
v -11 3 13
v -10 3 13
v -9 3 13
v 9 3 13
v 10 3 13
v 11 3 13
v 13 3 13
v 14 3 13
v 15 3 13
v -12 3 12
v -11 3 12
v 12 3 12
v 13 3 12
v -15 3 11
v -14 3 11
v -13 3 11
v -12 3 11
v -11 3 11
v -10 3 11
v -9 3 11
v 9 3 11
v 10 3 11
v 11 3 11
v 12 3 11
v 13 3 11
v 14 3 11
v 15 3 11
v -14 3 10
v -13 3 10
v -11 3 10
v -10 3 10
v 10 3 10
v 11 3 10
v 13 3 10
v 14 3 10
v -13 3 9
v -11 3 9
v 11 3 9
v 13 3 9
v -13 3 -9
v -11 3 -9
v 11 3 -9
v 13 3 -9
v -14 3 -10
v -13 3 -10
v -11 3 -10
v -10 3 -10
v 10 3 -10
v 11 3 -10
v 13 3 -10
v 14 3 -10
v -15 3 -11
v -14 3 -11
v -13 3 -11
v -11 3 -11
v -10 3 -11
v -9 3 -11
v 9 3 -11
v 10 3 -11
v 11 3 -11
v 13 3 -11
v 14 3 -11
v 15 3 -11
v -12 3 -12
v -11 3 -12
v 12 3 -12
v 13 3 -12
v -15 3 -13
v -14 3 -13
v -13 3 -13
v -12 3 -13
v -11 3 -13
v -10 3 -13
v -9 3 -13
v 9 3 -13
v 10 3 -13
v 11 3 -13
v 12 3 -13
v 13 3 -13
v 14 3 -13
v 15 3 -13
v -14 3 -14
v -13 3 -14
v -11 3 -14
v -10 3 -14
v 10 3 -14
v 11 3 -14
v 13 3 -14
v 14 3 -14
v -13 3 -15
v -11 3 -15
v 11 3 -15
v 13 3 -15
v -16 3 -16
v 16 3 -16
v -18 3 -18
v 18 3 -18
v -20 3 -20
v 20 3 -20

# faces
f 3/2/1 2/2/1 1/2/1
f 4/2/1 2/2/1 3/2/1
f 7/2/1 6/2/1 5/2/1
f 8/2/1 6/2/1 7/2/1
f 11/2/1 10/2/1 9/2/1
f 12/2/1 10/2/1 11/2/1
f 13/2/2 14/2/2 15/2/2
f 15/2/2 14/2/2 16/2/2
f 17/2/2 18/2/2 19/2/2
f 19/2/2 18/2/2 20/2/2
f 21/2/2 22/2/2 23/2/2
f 23/2/2 22/2/2 24/2/2
f 27/2/3 26/2/3 25/2/3
f 28/2/3 26/2/3 27/2/3
f 31/2/3 30/2/3 29/2/3
f 32/2/3 30/2/3 31/2/3
f 35/2/3 34/2/3 33/2/3
f 36/2/3 34/2/3 35/2/3
f 37/2/4 38/2/4 39/2/4
f 39/2/4 38/2/4 40/2/4
f 41/2/4 42/2/4 43/2/4
f 43/2/4 42/2/4 44/2/4
f 45/2/4 46/2/4 47/2/4
f 47/2/4 46/2/4 48/2/4
f 51/2/5 50/2/5 49/2/5
f 52/2/5 50/2/5 51/2/5
f 53/2/5 51/2/5 49/2/5
f 53/5/5 52/5/5 51/5/5
f 54/2/5 50/2/5 52/2/5
f 54/5/5 52/5/5 53/5/5
f 55/2/5 53/2/5 49/2/5
f 55/2/5 54/2/5 53/2/5
f 56/2/5 50/2/5 54/2/5
f 56/2/5 54/2/5 55/2/5
f 57/3/6 58/3/6 59/3/6
f 59/3/6 58/3/6 60/3/6
f 57/3/6 59/3/6 61/3/6
f 60/3/6 58/3/6 62/3/6
f 57/3/6 61/3/6 63/3/6
f 61/3/6 62/3/6 63/3/6
f 62/3/6 58/3/6 64/3/6
f 63/3/6 62/3/6 64/3/6
f 65/2/6 66/2/6 67/2/6
f 67/2/6 66/2/6 68/2/6
f 69/2/6 70/2/6 71/2/6
f 71/2/6 70/2/6 72/2/6
f 72/2/6 70/2/6 73/2/6
f 73/2/6 70/2/6 74/2/6
f 69/2/6 71/2/6 75/2/6
f 71/4/6 72/4/6 76/4/6
f 75/2/6 71/2/6 76/2/6
f 72/2/6 73/2/6 77/2/6
f 76/4/6 72/4/6 77/4/6
f 77/2/6 73/2/6 78/2/6
f 78/2/6 73/2/6 79/2/6
f 73/4/6 74/4/6 80/4/6
f 79/2/6 73/2/6 80/2/6
f 74/2/6 70/2/6 81/2/6
f 80/4/6 74/4/6 81/4/6
f 81/2/6 70/2/6 82/2/6
f 69/2/6 75/2/6 83/2/6
f 75/4/6 76/4/6 84/4/6
f 83/2/6 75/2/6 84/2/6
f 76/4/6 77/4/6 84/4/6
f 77/4/6 78/4/6 84/4/6
f 84/4/6 78/4/6 85/4/6
f 85/4/6 78/4/6 86/4/6
f 78/2/6 79/2/6 87/2/6
f 86/4/6 78/4/6 87/4/6
f 87/2/6 79/2/6 88/2/6
f 88/2/6 79/2/6 89/2/6
f 79/4/6 80/4/6 90/4/6
f 89/2/6 79/2/6 90/2/6
f 81/4/6 82/4/6 90/4/6
f 80/4/6 81/4/6 90/4/6
f 90/4/6 82/4/6 91/4/6
f 91/4/6 82/4/6 92/4/6
f 82/2/6 70/2/6 93/2/6
f 92/4/6 82/4/6 93/4/6
f 93/2/6 70/2/6 94/2/6
f 85/3/6 86/3/6 95/3/6
f 87/4/6 88/4/6 96/4/6
f 95/3/6 86/3/6 96/3/6
f 86/4/6 87/4/6 96/4/6
f 91/3/6 92/3/6 97/3/6
f 93/4/6 94/4/6 98/4/6
f 97/3/6 92/3/6 98/3/6
f 92/4/6 93/4/6 98/4/6
f 69/2/6 83/2/6 99/2/6
f 83/4/6 84/4/6 99/4/6
f 84/4/6 85/4/6 99/4/6
f 99/4/6 85/4/6 100/4/6
f 85/3/6 95/3/6 101/3/6
f 100/4/6 85/4/6 101/4/6
f 95/1/6 96/1/6 102/1/6
f 101/3/6 95/3/6 102/3/6
f 96/4/6 88/4/6 103/4/6
f 102/1/6 96/1/6 103/1/6
f 103/4/6 88/4/6 104/4/6
f 88/2/6 89/2/6 105/2/6
f 104/4/6 88/4/6 105/4/6
f 89/4/6 90/4/6 106/4/6
f 105/2/6 89/2/6 106/2/6
f 90/4/6 91/4/6 106/4/6
f 106/4/6 91/4/6 107/4/6
f 91/3/6 97/3/6 108/3/6
f 107/4/6 91/4/6 108/4/6
f 97/1/6 98/1/6 109/1/6
f 108/3/6 97/3/6 109/3/6
f 98/4/6 94/4/6 110/4/6
f 109/1/6 98/1/6 110/1/6
f 110/4/6 94/4/6 111/4/6
f 94/2/6 70/2/6 112/2/6
f 111/4/6 94/4/6 112/4/6
f 103/4/6 104/4/6 113/4/6
f 101/4/6 102/4/6 113/4/6
f 99/2/6 100/2/6 113/2/6
f 100/4/6 101/4/6 113/4/6
f 102/4/6 103/4/6 113/4/6
f 113/4/6 104/4/6 114/4/6
f 114/4/6 104/4/6 115/4/6
f 106/2/6 107/2/6 116/2/6
f 115/4/6 104/4/6 116/4/6
f 105/2/6 106/2/6 116/2/6
f 104/2/6 105/2/6 116/2/6
f 108/4/6 109/4/6 117/4/6
f 116/2/6 107/2/6 117/2/6
f 110/4/6 111/4/6 117/4/6
f 109/4/6 110/4/6 117/4/6
f 107/4/6 108/4/6 117/4/6
f 117/4/6 111/4/6 118/4/6
f 118/4/6 111/4/6 119/4/6
f 111/2/6 112/2/6 120/2/6
f 119/4/6 111/4/6 120/4/6
f 114/4/6 115/4/6 121/4/6
f 113/2/6 114/2/6 121/2/6
f 115/2/6 116/2/6 122/2/6
f 121/4/6 115/4/6 122/4/6
f 116/2/6 117/2/6 122/2/6
f 117/2/6 118/2/6 122/2/6
f 118/4/6 119/4/6 123/4/6
f 122/2/6 118/2/6 123/2/6
f 119/2/6 120/2/6 124/2/6
f 123/4/6 119/4/6 124/4/6
f 121/2/6 122/2/6 125/2/6
f 113/2/6 121/2/6 125/2/6
f 123/2/6 124/2/6 125/2/6
f 122/2/6 123/2/6 125/2/6
f 125/2/6 124/2/6 126/2/6
f 126/2/6 124/2/6 127/2/6
f 124/2/6 120/2/6 128/2/6
f 127/2/6 124/2/6 128/2/6
f 99/2/6 113/2/6 129/2/6
f 113/2/6 125/2/6 129/2/6
f 125/4/6 126/4/6 130/4/6
f 129/2/6 125/2/6 130/2/6
f 126/2/6 127/2/6 131/2/6
f 130/4/6 126/4/6 131/4/6
f 131/2/6 127/2/6 132/2/6
f 132/2/6 127/2/6 133/2/6
f 127/4/6 128/4/6 134/4/6
f 133/2/6 127/2/6 134/2/6
f 128/2/6 120/2/6 135/2/6
f 134/4/6 128/4/6 135/4/6
f 120/2/6 112/2/6 136/2/6
f 135/2/6 120/2/6 136/2/6
f 69/2/6 99/2/6 137/2/6
f 99/2/6 129/2/6 137/2/6
f 129/4/6 130/4/6 138/4/6
f 137/2/6 129/2/6 138/2/6
f 130/4/6 131/4/6 138/4/6
f 131/4/6 132/4/6 138/4/6
f 138/4/6 132/4/6 139/4/6
f 139/4/6 132/4/6 140/4/6
f 132/2/6 133/2/6 141/2/6
f 140/4/6 132/4/6 141/4/6
f 141/2/6 133/2/6 142/2/6
f 142/2/6 133/2/6 143/2/6
f 134/4/6 135/4/6 144/4/6
f 143/2/6 133/2/6 144/2/6
f 133/4/6 134/4/6 144/4/6
f 135/4/6 136/4/6 144/4/6
f 144/4/6 136/4/6 145/4/6
f 145/4/6 136/4/6 146/4/6
f 136/2/6 112/2/6 147/2/6
f 146/4/6 136/4/6 147/4/6
f 112/2/6 70/2/6 148/2/6
f 147/2/6 112/2/6 148/2/6
f 139/3/6 140/3/6 149/3/6
f 141/4/6 142/4/6 150/4/6
f 149/3/6 140/3/6 150/3/6
f 140/4/6 141/4/6 150/4/6
f 145/3/6 146/3/6 151/3/6
f 146/4/6 147/4/6 152/4/6
f 151/3/6 146/3/6 152/3/6
f 147/4/6 148/4/6 152/4/6
f 69/2/6 137/2/6 153/2/6
f 137/4/6 138/4/6 153/4/6
f 138/4/6 139/4/6 153/4/6
f 153/4/6 139/4/6 154/4/6
f 139/3/6 149/3/6 155/3/6
f 154/4/6 139/4/6 155/4/6
f 149/1/6 150/1/6 156/1/6
f 155/3/6 149/3/6 156/3/6
f 150/4/6 142/4/6 157/4/6
f 156/1/6 150/1/6 157/1/6
f 157/4/6 142/4/6 158/4/6
f 142/2/6 143/2/6 159/2/6
f 158/4/6 142/4/6 159/4/6
f 144/4/6 145/4/6 160/4/6
f 159/2/6 143/2/6 160/2/6
f 143/4/6 144/4/6 160/4/6
f 160/4/6 145/4/6 161/4/6
f 145/3/6 151/3/6 162/3/6
f 161/4/6 145/4/6 162/4/6
f 151/1/6 152/1/6 163/1/6
f 162/3/6 151/3/6 163/3/6
f 152/4/6 148/4/6 164/4/6
f 163/1/6 152/1/6 164/1/6
f 164/4/6 148/4/6 165/4/6
f 148/2/6 70/2/6 166/2/6
f 165/4/6 148/4/6 166/4/6
f 157/4/6 158/4/6 167/4/6
f 155/4/6 156/4/6 167/4/6
f 153/2/6 154/2/6 167/2/6
f 154/4/6 155/4/6 167/4/6
f 156/4/6 157/4/6 167/4/6
f 167/4/6 158/4/6 168/4/6
f 168/4/6 158/4/6 169/4/6
f 160/2/6 161/2/6 170/2/6
f 169/4/6 158/4/6 170/4/6
f 159/2/6 160/2/6 170/2/6
f 158/2/6 159/2/6 170/2/6
f 162/4/6 163/4/6 171/4/6
f 170/2/6 161/2/6 171/2/6
f 163/4/6 164/4/6 171/4/6
f 164/4/6 165/4/6 171/4/6
f 161/4/6 162/4/6 171/4/6
f 171/4/6 165/4/6 172/4/6
f 172/4/6 165/4/6 173/4/6
f 165/2/6 166/2/6 174/2/6
f 173/4/6 165/4/6 174/4/6
f 168/4/6 169/4/6 175/4/6
f 167/2/6 168/2/6 175/2/6
f 169/2/6 170/2/6 176/2/6
f 175/4/6 169/4/6 176/4/6
f 170/2/6 171/2/6 176/2/6
f 171/2/6 172/2/6 176/2/6
f 172/4/6 173/4/6 177/4/6
f 176/2/6 172/2/6 177/2/6
f 173/2/6 174/2/6 178/2/6
f 177/4/6 173/4/6 178/4/6
f 167/2/6 175/2/6 179/2/6
f 175/2/6 176/2/6 179/2/6
f 177/2/6 178/2/6 179/2/6
f 176/2/6 177/2/6 179/2/6
f 153/2/6 167/2/6 179/2/6
f 69/2/6 153/2/6 179/2/6
f 174/2/6 166/2/6 180/2/6
f 179/2/6 178/2/6 180/2/6
f 178/2/6 174/2/6 180/2/6
f 166/2/6 70/2/6 180/2/6
f 65/2/6 67/2/6 181/2/6
f 68/2/6 66/2/6 182/2/6
f 65/2/6 181/2/6 183/2/6
f 181/2/6 182/2/6 183/2/6
f 182/2/6 66/2/6 184/2/6
f 183/2/6 182/2/6 184/2/6
